<svg width="640" height="209" viewBox="0 0 640 209" fill="none" xmlns="http://www.w3.org/2000/svg">
<path fill-rule="evenodd" clip-rule="evenodd" d="M210.459 52.075H150.328L180.393 0L210.459 52.075Z" fill="#FCC669"/>
<path fill-rule="evenodd" clip-rule="evenodd" d="M180.393 104.15L150.328 52.075H210.459L180.393 104.15Z" fill="#2AA250"/>
<path d="M240.524 104.15H180.393L210.459 52.075L240.524 104.15Z" fill="#34CB64"/>
<path fill-rule="evenodd" clip-rule="evenodd" d="M210.459 156.225H150.328L180.393 208.3L210.459 156.225Z" fill="#F73B9C"/>
<path d="M150.328 156.225L120.262 208.3H180.393L150.328 156.225Z" fill="#F96CB5"/>
<path fill-rule="evenodd" clip-rule="evenodd" d="M180.393 104.15L150.328 156.225H210.459L180.393 104.15Z" fill="#74CDF1"/>
<path d="M240.524 104.15H180.393L210.459 156.225L240.524 104.15Z" fill="#46BCEC"/>
<path d="M90.1965 156.225L60.131 208.3L120.262 208.3L120.12 208.053L90.1965 156.225Z" fill="white"/>
<path d="M120.262 0L150.328 52.075L180.393 0H120.262Z" fill="#FBB337"/>
<path d="M0 104.15L30.0655 156.225V104.15L0 104.15Z" fill="white"/>
<path d="M30.0655 52.075L0 104.15L30.0655 104.15V52.075Z" fill="white"/>
<path fill-rule="evenodd" clip-rule="evenodd" d="M30.0655 0H60.131L90.1965 52.075L60.131 104.15L90.1965 156.225L120.12 208.053H30.0655V104.15V0Z" fill="white"/>
<path d="M120.262 0H60.131L90.1965 52.075L120.262 0Z" fill="#FF3333"/>
<path d="M150.328 52.075L120.262 0L90.1965 52.075H120.262H150.328Z" fill="#FF6666"/>
<path d="M120.262 208.3L150.328 156.225L120.262 156.225L90.1965 156.225L120.12 208.053L120.262 208.3Z" fill="white"/>
<path d="M267.834 122.228V38.0442H306.078C315.218 38.0442 323.275 39.8081 330.25 43.3357C337.226 46.7833 342.678 51.6338 346.606 57.8875C350.535 64.1411 352.499 71.5572 352.499 80.1359C352.499 88.6344 350.535 96.0506 346.606 102.384C342.678 108.638 337.226 113.529 330.25 117.056C323.275 120.504 315.218 122.228 306.078 122.228H267.834ZM287.317 106.233H305.116C310.728 106.233 315.578 105.191 319.667 103.106C323.836 100.941 327.043 97.8946 329.288 93.9661C331.613 90.0375 332.776 85.4275 332.776 80.1359C332.776 74.7642 331.613 70.1542 329.288 66.3058C327.043 62.3772 323.836 59.3707 319.667 57.2861C315.578 55.1214 310.728 54.0391 305.116 54.0391H287.317V106.233Z" fill="white"/>
<path d="M378.015 122.228V38.0442H397.498V122.228H378.015Z" fill="white"/>
<path d="M468.587 123.671C462.093 123.671 456.04 122.629 450.428 120.544C444.896 118.379 440.085 115.333 435.996 111.404C431.908 107.476 428.701 102.865 426.375 97.5739C424.131 92.2824 423.008 86.4697 423.008 80.1359C423.008 73.8021 424.131 67.9895 426.375 62.6979C428.701 57.4064 431.908 52.7964 435.996 48.8678C440.166 44.9392 445.016 41.9327 450.548 39.8481C456.08 37.6834 462.133 36.6011 468.708 36.6011C476.004 36.6011 482.578 37.8839 488.431 40.4495C494.364 42.9349 499.334 46.6229 503.343 51.5136L490.836 63.0587C487.95 59.7716 484.743 57.3262 481.215 55.7227C477.687 54.0391 473.839 53.1972 469.67 53.1972C465.741 53.1972 462.133 53.8386 458.846 55.1214C455.559 56.4042 452.713 58.2482 450.308 60.6535C447.902 63.0587 446.018 65.9049 444.655 69.1921C443.373 72.4793 442.731 76.1272 442.731 80.1359C442.731 84.1447 443.373 87.7926 444.655 91.0798C446.018 94.3669 447.902 97.2131 450.308 99.6184C452.713 102.024 455.559 103.868 458.846 105.15C462.133 106.433 465.741 107.075 469.67 107.075C473.839 107.075 477.687 106.273 481.215 104.669C484.743 102.986 487.95 100.46 490.836 97.0929L503.343 108.638C499.334 113.529 494.364 117.257 488.431 119.822C482.578 122.388 475.964 123.671 468.587 123.671Z" fill="white"/>
<path d="M545.242 71.9581H585.771V87.1111H545.242V71.9581ZM546.685 106.594H592.505V122.228H527.323V38.0442H590.942V53.6783H546.685V106.594Z" fill="white"/>
<path d="M625.777 123.19C622.57 123.19 619.804 122.107 617.479 119.943C615.234 117.698 614.112 114.852 614.112 111.404C614.112 107.957 615.234 105.191 617.479 103.106C619.804 100.941 622.57 99.8589 625.777 99.8589C629.065 99.8589 631.831 100.941 634.076 103.106C636.32 105.191 637.443 107.957 637.443 111.404C637.443 114.852 636.32 117.698 634.076 119.943C631.831 122.107 629.065 123.19 625.777 123.19Z" fill="white"/>
<path d="M266.012 171.535V157.224H268.057V171.535H266.012Z" fill="white"/>
<path d="M272.341 171.535V157.224H274.018L283.484 168.98H282.605V157.224H284.649V171.535H282.973L273.507 159.779H274.386V171.535H272.341Z" fill="white"/>
<path d="M288.933 171.535V157.224H290.609L300.075 168.98H299.196V157.224H301.24V171.535H299.564L290.098 159.779H290.977V171.535H288.933Z" fill="white"/>
<path d="M311.984 171.699C310.894 171.699 309.879 171.515 308.938 171.147C308.011 170.779 307.207 170.268 306.526 169.613C305.844 168.945 305.313 168.169 304.931 167.283C304.549 166.397 304.359 165.429 304.359 164.379C304.359 163.33 304.549 162.362 304.931 161.476C305.313 160.59 305.844 159.82 306.526 159.166C307.207 158.498 308.011 157.98 308.938 157.612C309.865 157.244 310.88 157.06 311.984 157.06C313.075 157.06 314.077 157.244 314.99 157.612C315.917 157.967 316.721 158.478 317.402 159.146C318.097 159.8 318.629 160.57 318.997 161.456C319.379 162.342 319.569 163.316 319.569 164.379C319.569 165.443 319.379 166.417 318.997 167.303C318.629 168.189 318.097 168.966 317.402 169.634C316.721 170.288 315.917 170.799 314.99 171.167C314.077 171.521 313.075 171.699 311.984 171.699ZM311.984 169.879C312.775 169.879 313.504 169.743 314.172 169.47C314.853 169.198 315.44 168.816 315.93 168.325C316.435 167.821 316.823 167.235 317.096 166.567C317.382 165.899 317.525 165.17 317.525 164.379C317.525 163.589 317.382 162.86 317.096 162.192C316.823 161.524 316.435 160.945 315.93 160.454C315.44 159.95 314.853 159.561 314.172 159.289C313.504 159.016 312.775 158.88 311.984 158.88C311.18 158.88 310.437 159.016 309.756 159.289C309.088 159.561 308.502 159.95 307.998 160.454C307.493 160.945 307.098 161.524 306.812 162.192C306.539 162.86 306.403 163.589 306.403 164.379C306.403 165.17 306.539 165.899 306.812 166.567C307.098 167.235 307.493 167.821 307.998 168.325C308.502 168.816 309.088 169.198 309.756 169.47C310.437 169.743 311.18 169.879 311.984 169.879Z" fill="white"/>
<path d="M326.385 171.535L320.088 157.224H322.296L328.082 170.431H326.814L332.641 157.224H334.685L328.409 171.535H326.385Z" fill="white"/>
<path d="M333.884 171.535L340.365 157.224H342.389L348.89 171.535H346.743L340.958 158.369H341.775L335.99 171.535H333.884ZM336.644 167.957L337.196 166.322H345.251L345.844 167.957H336.644Z" fill="white"/>
<path d="M353.148 171.535V159.003H348.241V157.224H360.079V159.003H355.172V171.535H353.148Z" fill="white"/>
<path d="M364.166 163.398H371.526V165.136H364.166V163.398ZM364.35 169.756H372.691V171.535H362.305V157.224H372.405V159.003H364.35V169.756Z" fill="white"/>
<path d="M376.385 171.658C376.004 171.658 375.677 171.528 375.404 171.269C375.131 170.997 374.995 170.656 374.995 170.247C374.995 169.838 375.131 169.504 375.404 169.245C375.677 168.986 376.004 168.857 376.385 168.857C376.753 168.857 377.067 168.986 377.326 169.245C377.598 169.504 377.735 169.838 377.735 170.247C377.735 170.656 377.598 170.997 377.326 171.269C377.067 171.528 376.753 171.658 376.385 171.658Z" fill="white"/>
<path d="M392.723 171.699C391.633 171.699 390.624 171.521 389.697 171.167C388.784 170.799 387.987 170.288 387.305 169.634C386.637 168.966 386.113 168.189 385.731 167.303C385.349 166.417 385.158 165.443 385.158 164.379C385.158 163.316 385.349 162.342 385.731 161.456C386.113 160.57 386.644 159.8 387.326 159.146C388.007 158.478 388.804 157.967 389.718 157.612C390.644 157.244 391.653 157.06 392.743 157.06C393.847 157.06 394.863 157.251 395.79 157.633C396.73 158.001 397.527 158.553 398.182 159.289L396.853 160.577C396.308 160.004 395.694 159.582 395.013 159.309C394.331 159.023 393.602 158.88 392.825 158.88C392.021 158.88 391.271 159.016 390.576 159.289C389.895 159.561 389.302 159.943 388.798 160.434C388.293 160.924 387.898 161.51 387.612 162.192C387.339 162.86 387.203 163.589 387.203 164.379C387.203 165.17 387.339 165.906 387.612 166.587C387.898 167.255 388.293 167.835 388.798 168.325C389.302 168.816 389.895 169.198 390.576 169.47C391.271 169.743 392.021 169.879 392.825 169.879C393.602 169.879 394.331 169.743 395.013 169.47C395.694 169.184 396.308 168.748 396.853 168.162L398.182 169.45C397.527 170.186 396.73 170.745 395.79 171.126C394.863 171.508 393.841 171.699 392.723 171.699Z" fill="white"/>
<path d="M401.098 171.535V157.224H406.68C407.933 157.224 409.003 157.422 409.889 157.817C410.775 158.212 411.457 158.785 411.934 159.534C412.411 160.284 412.649 161.177 412.649 162.212C412.649 163.248 412.411 164.141 411.934 164.891C411.457 165.627 410.775 166.192 409.889 166.587C409.003 166.983 407.933 167.18 406.68 167.18H402.223L403.143 166.24V171.535H401.098ZM410.666 171.535L407.027 166.342H409.215L412.895 171.535H410.666ZM403.143 166.444L402.223 165.443H406.618C407.927 165.443 408.915 165.163 409.583 164.604C410.264 164.032 410.605 163.235 410.605 162.212C410.605 161.19 410.264 160.4 409.583 159.841C408.915 159.282 407.927 159.003 406.618 159.003H402.223L403.143 157.98V166.444Z" fill="white"/>
<path d="M417.813 163.398H425.173V165.136H417.813V163.398ZM417.997 169.756H426.338V171.535H415.952V157.224H426.052V159.003H417.997V169.756Z" fill="white"/>
<path d="M427.482 171.535L433.962 157.224H435.986L442.488 171.535H440.341L434.555 158.369H435.373L429.587 171.535H427.482ZM430.242 167.957L430.794 166.322H438.849L439.442 167.957H430.242Z" fill="white"/>
<path d="M446.746 171.535V159.003H441.839V157.224H453.676V159.003H448.77V171.535H446.746Z" fill="white"/>
<path d="M457.764 163.398H465.124V165.136H457.764V163.398ZM457.948 169.756H466.289V171.535H455.903V157.224H466.003V159.003H457.948V169.756Z" fill="white"/>
<path d="M469.983 171.658C469.601 171.658 469.274 171.528 469.002 171.269C468.729 170.997 468.593 170.656 468.593 170.247C468.593 169.838 468.729 169.504 469.002 169.245C469.274 168.986 469.601 168.857 469.983 168.857C470.351 168.857 470.665 168.986 470.924 169.245C471.196 169.504 471.332 169.838 471.332 170.247C471.332 170.656 471.196 170.997 470.924 171.269C470.665 171.528 470.351 171.658 469.983 171.658Z" fill="white"/>
<path d="M486.321 171.699C485.23 171.699 484.222 171.521 483.295 171.167C482.382 170.799 481.584 170.288 480.903 169.634C480.235 168.966 479.71 168.189 479.329 167.303C478.947 166.417 478.756 165.443 478.756 164.379C478.756 163.316 478.947 162.342 479.329 161.456C479.71 160.57 480.242 159.8 480.923 159.146C481.605 158.478 482.402 157.967 483.315 157.612C484.242 157.244 485.251 157.06 486.341 157.06C487.445 157.06 488.461 157.251 489.387 157.633C490.328 158.001 491.125 158.553 491.779 159.289L490.45 160.577C489.905 160.004 489.292 159.582 488.61 159.309C487.929 159.023 487.2 158.88 486.423 158.88C485.619 158.88 484.869 159.016 484.174 159.289C483.492 159.561 482.9 159.943 482.395 160.434C481.891 160.924 481.496 161.51 481.21 162.192C480.937 162.86 480.801 163.589 480.801 164.379C480.801 165.17 480.937 165.906 481.21 166.587C481.496 167.255 481.891 167.835 482.395 168.325C482.9 168.816 483.492 169.198 484.174 169.47C484.869 169.743 485.619 169.879 486.423 169.879C487.2 169.879 487.929 169.743 488.61 169.47C489.292 169.184 489.905 168.748 490.45 168.162L491.779 169.45C491.125 170.186 490.328 170.745 489.387 171.126C488.461 171.508 487.438 171.699 486.321 171.699Z" fill="white"/>
<path d="M500.857 171.699C499.766 171.699 498.751 171.515 497.811 171.147C496.884 170.779 496.08 170.268 495.398 169.613C494.717 168.945 494.185 168.169 493.804 167.283C493.422 166.397 493.231 165.429 493.231 164.379C493.231 163.33 493.422 162.362 493.804 161.476C494.185 160.59 494.717 159.82 495.398 159.166C496.08 158.498 496.884 157.98 497.811 157.612C498.737 157.244 499.753 157.06 500.857 157.06C501.947 157.06 502.949 157.244 503.862 157.612C504.789 157.967 505.593 158.478 506.275 159.146C506.97 159.8 507.501 160.57 507.869 161.456C508.251 162.342 508.442 163.316 508.442 164.379C508.442 165.443 508.251 166.417 507.869 167.303C507.501 168.189 506.97 168.966 506.275 169.634C505.593 170.288 504.789 170.799 503.862 171.167C502.949 171.521 501.947 171.699 500.857 171.699ZM500.857 169.879C501.647 169.879 502.377 169.743 503.044 169.47C503.726 169.198 504.312 168.816 504.803 168.325C505.307 167.821 505.695 167.235 505.968 166.567C506.254 165.899 506.397 165.17 506.397 164.379C506.397 163.589 506.254 162.86 505.968 162.192C505.695 161.524 505.307 160.945 504.803 160.454C504.312 159.95 503.726 159.561 503.044 159.289C502.377 159.016 501.647 158.88 500.857 158.88C500.053 158.88 499.31 159.016 498.628 159.289C497.961 159.561 497.374 159.95 496.87 160.454C496.366 160.945 495.971 161.524 495.684 162.192C495.412 162.86 495.276 163.589 495.276 164.379C495.276 165.17 495.412 165.899 495.684 166.567C495.971 167.235 496.366 167.821 496.87 168.325C497.374 168.816 497.961 169.198 498.628 169.47C499.31 169.743 500.053 169.879 500.857 169.879Z" fill="white"/>
<path d="M511.567 171.535V157.224H513.611V169.756H521.36V171.535H511.567Z" fill="white"/>
<path d="M523.706 171.535V157.224H525.75V169.756H533.499V171.535H523.706Z" fill="white"/>
<path d="M533.677 171.535L540.158 157.224H542.182L548.684 171.535H546.537L540.751 158.369H541.569L535.783 171.535H533.677ZM536.437 167.957L536.989 166.322H545.045L545.637 167.957H536.437Z" fill="white"/>
<path d="M550.819 171.535V157.224H557.238C558.887 157.224 560.155 157.558 561.041 158.226C561.927 158.88 562.37 159.779 562.37 160.924C562.37 161.701 562.193 162.355 561.838 162.887C561.497 163.419 561.034 163.827 560.448 164.114C559.862 164.4 559.228 164.543 558.547 164.543L558.915 163.93C559.732 163.93 560.455 164.073 561.082 164.359C561.709 164.645 562.206 165.068 562.574 165.627C562.942 166.172 563.126 166.853 563.126 167.671C563.126 168.898 562.663 169.852 561.736 170.533C560.823 171.201 559.46 171.535 557.647 171.535H550.819ZM552.863 169.879H557.565C558.697 169.879 559.562 169.688 560.162 169.307C560.761 168.925 561.061 168.325 561.061 167.508C561.061 166.676 560.761 166.07 560.162 165.688C559.562 165.306 558.697 165.115 557.565 165.115H552.679V163.459H557.054C558.09 163.459 558.894 163.269 559.467 162.887C560.039 162.505 560.325 161.933 560.325 161.17C560.325 160.406 560.039 159.834 559.467 159.452C558.894 159.071 558.09 158.88 557.054 158.88H552.863V169.879Z" fill="white"/>
<path d="M572.752 171.699C571.662 171.699 570.646 171.515 569.706 171.147C568.779 170.779 567.975 170.268 567.294 169.613C566.612 168.945 566.08 168.169 565.699 167.283C565.317 166.397 565.126 165.429 565.126 164.379C565.126 163.33 565.317 162.362 565.699 161.476C566.08 160.59 566.612 159.82 567.294 159.166C567.975 158.498 568.779 157.98 569.706 157.612C570.633 157.244 571.648 157.06 572.752 157.06C573.843 157.06 574.844 157.244 575.758 157.612C576.684 157.967 577.489 158.478 578.17 159.146C578.865 159.8 579.397 160.57 579.765 161.456C580.146 162.342 580.337 163.316 580.337 164.379C580.337 165.443 580.146 166.417 579.765 167.303C579.397 168.189 578.865 168.966 578.17 169.634C577.489 170.288 576.684 170.799 575.758 171.167C574.844 171.521 573.843 171.699 572.752 171.699ZM572.752 169.879C573.543 169.879 574.272 169.743 574.94 169.47C575.621 169.198 576.207 168.816 576.698 168.325C577.202 167.821 577.591 167.235 577.863 166.567C578.15 165.899 578.293 165.17 578.293 164.379C578.293 163.589 578.15 162.86 577.863 162.192C577.591 161.524 577.202 160.945 576.698 160.454C576.207 159.95 575.621 159.561 574.94 159.289C574.272 159.016 573.543 158.88 572.752 158.88C571.948 158.88 571.205 159.016 570.524 159.289C569.856 159.561 569.27 159.95 568.766 160.454C568.261 160.945 567.866 161.524 567.58 162.192C567.307 162.86 567.171 163.589 567.171 164.379C567.171 165.17 567.307 165.899 567.58 166.567C567.866 167.235 568.261 167.821 568.766 168.325C569.27 168.816 569.856 169.198 570.524 169.47C571.205 169.743 571.948 169.879 572.752 169.879Z" fill="white"/>
<path d="M583.462 171.535V157.224H589.043C590.297 157.224 591.367 157.422 592.253 157.817C593.139 158.212 593.821 158.785 594.298 159.534C594.775 160.284 595.013 161.177 595.013 162.212C595.013 163.248 594.775 164.141 594.298 164.891C593.821 165.627 593.139 166.192 592.253 166.587C591.367 166.983 590.297 167.18 589.043 167.18H584.586L585.506 166.24V171.535H583.462ZM593.03 171.535L589.391 166.342H591.578L595.258 171.535H593.03ZM585.506 166.444L584.586 165.443H588.982C590.29 165.443 591.279 165.163 591.946 164.604C592.628 164.032 592.969 163.235 592.969 162.212C592.969 161.19 592.628 160.4 591.946 159.841C591.279 159.282 590.29 159.003 588.982 159.003H584.586L585.506 157.98V166.444Z" fill="white"/>
<path d="M596.149 171.535L602.63 157.224H604.654L611.155 171.535H609.009L603.223 158.369H604.041L598.255 171.535H596.149ZM598.909 167.957L599.461 166.322H607.516L608.109 167.957H598.909Z" fill="white"/>
<path d="M615.413 171.535V159.003H610.507V157.224H622.344V159.003H617.437V171.535H615.413Z" fill="white"/>
<path d="M626.431 163.398H633.791V165.136H626.431V163.398ZM626.615 169.756H634.956V171.535H624.571V157.224H634.67V159.003H626.615V169.756Z" fill="white"/>
<path d="M638.651 171.658C638.269 171.658 637.942 171.528 637.669 171.269C637.397 170.997 637.26 170.656 637.26 170.247C637.26 169.838 637.397 169.504 637.669 169.245C637.942 168.986 638.269 168.857 638.651 168.857C639.019 168.857 639.332 168.986 639.591 169.245C639.864 169.504 640 169.838 640 170.247C640 170.656 639.864 170.997 639.591 171.269C639.332 171.528 639.019 171.658 638.651 171.658Z" fill="white"/>
</svg>
