<svg width="24" height="24" viewBox="0 0 24 24" fill="none" xmlns="http://www.w3.org/2000/svg">
<path d="M22.3224 0H1.75001C0.777783 0 0 0.774194 0 1.74194V22.2581C0 23.1871 0.777783 24 1.75001 24H22.2446C23.2169 24 23.9946 23.2258 23.9946 22.2581V1.70323C24.0724 0.774194 23.2946 0 22.3224 0ZM7.11673 20.4H3.57782V8.98065H7.11673V20.4ZM5.32783 7.39355C4.16116 7.39355 3.26669 6.46452 3.26669 5.34194C3.26669 4.21935 4.20005 3.29032 5.32783 3.29032C6.45562 3.29032 7.38896 4.21935 7.38896 5.34194C7.38896 6.46452 6.5334 7.39355 5.32783 7.39355ZM20.5335 20.4H16.9946V14.8645C16.9946 13.5484 16.9557 11.8065 15.1279 11.8065C13.2612 11.8065 12.989 13.2774 12.989 14.7484V20.4H9.45008V8.98065H12.9112V10.5677H12.9501C13.4557 9.63871 14.5835 8.70968 16.3335 8.70968C19.9502 8.70968 20.6113 11.0323 20.6113 14.2065V20.4H20.5335Z" fill="white"/>
</svg>
