<svg width="20" height="24" viewBox="0 0 20 24" fill="none" xmlns="http://www.w3.org/2000/svg">
<path d="M9.93377 0C4.45033 0 0 4.29139 0 9.57616C0 13.5894 5.3245 19.947 8.46358 23.3642C8.86093 23.8013 9.37748 24 9.93377 24C10.4901 24 11.0066 23.7616 11.404 23.3642C14.543 19.947 19.8675 13.5894 19.8675 9.57616C19.8675 4.29139 15.4172 0 9.93377 0ZM10.0927 22.1722C10.0132 22.2517 9.89404 22.2517 9.77483 22.1722C5.92053 17.9603 1.78808 12.4768 1.78808 9.57616C1.78808 5.28477 5.44371 1.78808 9.93377 1.78808C14.4238 1.78808 18.0795 5.28477 18.0795 9.57616C18.0795 12.4768 13.947 17.9603 10.0927 22.1722Z" fill="white"/>
<path d="M9.93373 5.52319C7.54962 5.52319 5.6026 7.47021 5.6026 9.85432C5.6026 12.2384 7.54962 14.2252 9.93373 14.2252C12.3178 14.2252 14.2649 12.2782 14.2649 9.89405C14.2649 7.50995 12.3178 5.52319 9.93373 5.52319ZM9.93373 12.4371C8.50326 12.4371 7.39068 11.2848 7.39068 9.89405C7.39068 8.50333 8.543 7.35101 9.93373 7.35101C11.3245 7.35101 12.4768 8.50333 12.4768 9.89405C12.4768 11.2848 11.3642 12.4371 9.93373 12.4371Z" fill="white"/>
</svg>
