<svg width="25" height="24" viewBox="0 0 25 24" fill="none" xmlns="http://www.w3.org/2000/svg">
<path d="M12.6276 6.26782C9.49376 6.26782 6.91525 8.80667 6.91525 11.9802C6.91525 15.1141 9.45409 17.6926 12.6276 17.6926C15.7615 17.6926 18.3004 15.1538 18.3004 11.9802C18.3004 8.84633 15.7615 6.26782 12.6276 6.26782ZM12.6276 15.9075C10.4855 15.9075 8.70038 14.162 8.70038 11.9802C8.70038 9.83807 10.4458 8.05295 12.6276 8.05295C14.7698 8.05295 16.5153 9.7984 16.5153 11.9802C16.5153 14.1224 14.7698 15.9075 12.6276 15.9075Z" fill="#EEEEEE"/>
<path d="M18.5774 3.8877C17.784 3.8877 17.189 4.52241 17.189 5.27613C17.189 6.02984 17.8237 6.66455 18.5774 6.66455C19.3311 6.66455 19.9658 6.02984 19.9658 5.27613C19.9658 4.52241 19.3708 3.8877 18.5774 3.8877Z" fill="white"/>
<path d="M18.5381 0H6.71658C3.34468 0 0.647156 2.69752 0.647156 6.06942V17.9306C0.647156 21.2628 3.38434 24 6.71658 24H18.5777C21.91 24 24.6472 21.2628 24.6472 17.9306V6.06942C24.6472 2.69752 21.91 0 18.5381 0ZM22.862 17.8909C22.862 20.2711 20.9579 22.1752 18.5777 22.1752H6.71658C4.33642 22.1752 2.43228 20.2711 2.43228 17.8909V6.06942C2.43228 3.68926 4.37609 1.78512 6.71658 1.78512H18.5381C20.9182 1.78512 22.8224 3.72893 22.8224 6.06942V17.8909H22.862Z" fill="white"/>
</svg>
