<svg width="24" height="24" viewBox="0 0 24 24" fill="none" xmlns="http://www.w3.org/2000/svg">
<path d="M22.6452 0H1.35484C0.580645 0 0 0.619355 0 1.35484V22.6452C0 23.4194 0.619355 24 1.35484 24H12.8129V14.671H9.71613V11.071H12.8129V8.4C12.8129 5.30323 14.671 3.6 17.4581 3.6C18.3871 3.6 19.3161 3.63871 20.2452 3.75484V6.96774H18.3871C16.9161 6.96774 16.6065 7.66452 16.6065 8.70968V10.9935H20.129L19.6258 14.6323H16.529V23.8452H22.6452C23.4194 23.8452 24 23.2645 24 22.4903V1.35484C23.9613 0.580645 23.3419 0 22.6452 0Z" fill="#FFFDFD"/>
</svg>
